<svg width="21" height="22" viewBox="0 0 21 22" fill="none" xmlns="http://www.w3.org/2000/svg">
<path d="M10.5234 5.28876C7.52344 5.28876 5.13281 7.73102 5.13281 10.6899C5.13281 13.6958 7.52344 16.0911 10.5234 16.0911C13.4766 16.0911 15.9141 13.6958 15.9141 10.6899C15.9141 7.73102 13.4766 5.28876 10.5234 5.28876ZM10.5234 14.2124C8.60156 14.2124 7.00781 12.6625 7.00781 10.6899C7.00781 8.76429 8.55469 7.21439 10.5234 7.21439C12.4453 7.21439 13.9922 8.76429 13.9922 10.6899C13.9922 12.6625 12.4453 14.2124 10.5234 14.2124ZM17.3672 5.10089C17.3672 4.39639 16.8047 3.83279 16.1016 3.83279C15.3984 3.83279 14.8359 4.39639 14.8359 5.10089C14.8359 5.80539 15.3984 6.36899 16.1016 6.36899C16.8047 6.36899 17.3672 5.80539 17.3672 5.10089ZM20.9297 6.36899C20.8359 4.67819 20.4609 3.17526 19.2422 1.95412C18.0234 0.732988 16.5234 0.357255 14.8359 0.263321C13.1016 0.169388 7.89844 0.169388 6.16406 0.263321C4.47656 0.357255 3.02344 0.732988 1.75781 1.95412C0.539062 3.17526 0.164062 4.67819 0.0703125 6.36899C-0.0234375 8.10676 -0.0234375 13.3201 0.0703125 15.0578C0.164062 16.7486 0.539062 18.2046 1.75781 19.4727C3.02344 20.6938 4.47656 21.0696 6.16406 21.1635C7.89844 21.2574 13.1016 21.2574 14.8359 21.1635C16.5234 21.0696 18.0234 20.6938 19.2422 19.4727C20.4609 18.2046 20.8359 16.7486 20.9297 15.0578C21.0234 13.3201 21.0234 8.10676 20.9297 6.36899ZM18.6797 16.8895C18.3516 17.8289 17.6016 18.5334 16.7109 18.9091C15.3047 19.4727 12.0234 19.3318 10.5234 19.3318C8.97656 19.3318 5.69531 19.4727 4.33594 18.9091C3.39844 18.5334 2.69531 17.8289 2.32031 16.8895C1.75781 15.5275 1.89844 12.2398 1.89844 10.6899C1.89844 9.18699 1.75781 5.89932 2.32031 4.49032C2.69531 3.59796 3.39844 2.89346 4.33594 2.51772C5.69531 1.95412 8.97656 2.09502 10.5234 2.09502C12.0234 2.09502 15.3047 1.95412 16.7109 2.51772C17.6016 2.84649 18.3047 3.59796 18.6797 4.49032C19.2422 5.89932 19.1016 9.18699 19.1016 10.6899C19.1016 12.2398 19.2422 15.5275 18.6797 16.8895Z" fill="black"/>
</svg>
