<svg viewBox="0 0 127 26" fill="currentColor" xmlns="http://www.w3.org/2000/svg">
  <path d="M5.15 6.63H4.1a.47.47 0 0 0-.37.14.48.48 0 0 0-.15.37l.02 5.38v2.81c0 1.19-.58 1.62-1.08 1.64h-.1a2.53 2.53 0 0 1-1.59-.48.4.4 0 0 0-.26-.1.49.49 0 0 0-.32.14.5.5 0 0 0-.15.32L0 17.86a.43.43 0 0 0 .1.34.58.58 0 0 0 .45.17h1.98c1.87 0 3.12-1.21 3.12-3v-2.85l.02-5.38a.5.5 0 0 0-.15-.37.48.48 0 0 0-.37-.14ZM14.28 11.2c-1.36-.57-2.52-1.06-2.52-2.25 0-.69.6-1.15 1.5-1.15 1.1 0 2.19.31 3.12.91.08.05.18.08.27.08a.43.43 0 0 0 .43-.36l.22-1.1a.5.5 0 0 0-.06-.44.4.4 0 0 0-.32-.17c-.28-.02-.6-.07-.95-.12a18.1 18.1 0 0 0-2.67-.21c-2.09 0-3.43 1.28-3.43 3.24 0 2.15 1.86 2.94 3.51 3.63 1.42.6 2.64 1.11 2.64 2.3 0 .9-.92 1.63-2.05 1.63a4.02 4.02 0 0 1-3.03-1.28.52.52 0 0 0-.39-.2c-.09 0-.18.04-.25.1a.43.43 0 0 0-.15.23l-.3 1.14a.53.53 0 0 0 .26.66c1.17.53 2.44.8 3.72.79 2.57 0 4.1-1.28 4.1-3.45 0-2.47-1.94-3.28-3.65-3.99ZM28.63 11.72a2.8 2.8 0 0 0 1.24-2.38c0-.72-.28-1.41-.78-1.93-.5-.51-1.18-.8-1.9-.8h-4.6a.47.47 0 0 0-.37.13.48.48 0 0 0-.14.37l.02 5.36-.02 5.38a.47.47 0 0 0 .3.47 1.94 1.94 0 0 0 .7-.04 1.47 1.47 0 0 1 .68-.02c.91.1 1.84.15 2.76.14 2.1 0 4.2-1.1 4.2-3.54a3.4 3.4 0 0 0-2.1-3.14Zm-2.13-.27h-2.27a.19.19 0 0 1-.08-.04l.02-3.35c0-.06.11-.15.21-.15h1.72c.76 0 1.67.28 1.67 1.58 0 1.09-.57 1.96-1.27 1.96Zm-2.33 4.9-.02-3.62a.12.12 0 0 1 .08-.04h2.62c.96 0 1.72.97 1.72 2.21 0 1.81-1.5 2.09-2.38 2.09-1.21 0-2.02-.1-2.02-.63ZM45.12 13.17h-.96a.29.29 0 0 0-.2.08.3.3 0 0 0-.09.18l.02 3.46c0 .12-.06.18-.2.18h-.87c-.13 0-.2-.06-.2-.18l.02-4.39-.01-4.38c0-.13.06-.19.2-.19h2.93c1.52 0 3.03.69 3.03 2.55 0 1.52-1.2 2.69-3.67 2.69Zm-.05-4.63h-.82c-.1 0-.19.03-.26.1a.37.37 0 0 0-.12.25v3.43c.01.07.04.14.1.19a.3.3 0 0 0 .19.08h.76c1.4 0 2.53-.41 2.53-2.16 0-1.3-.68-1.89-2.38-1.89ZM58.68 17.11h-1.14a.26.26 0 0 1-.27-.18l-.36-1.04-.48-1.29a.18.18 0 0 0-.18-.12H53a.18.18 0 0 0-.18.12l-.73 2.35a.21.21 0 0 1-.09.13.2.2 0 0 1-.15.03h-.75c-.14 0-.16-.1-.12-.22l3.36-8.85c.06-.2.77-.2.84 0l3.13 7.87c.15.38.5 1.02.5 1.02.05.12 0 .18-.13.18Zm-4.04-7.44a.08.08 0 0 0-.03-.05.08.08 0 0 0-.12.05l-1.36 4.03a.12.12 0 0 0 .1.15h2.82a.1.1 0 0 0 .09-.05.1.1 0 0 0 0-.1l-1.5-4.03ZM69.2 17.07h-1.13c-.14 0-.2-.08-.25-.18l-2.1-3.5c-.24-.39-.48-.6-.77-.6h-1a.28.28 0 0 0-.2.07.29.29 0 0 0-.09.17l.02 3.84c0 .13-.06.19-.2.19h-.87c-.13 0-.2-.06-.2-.19l.02-4.37-.01-4.38c0-.13.01-.19.13-.19h3.62c1.32 0 2.38.91 2.38 2.16s-.88 2.23-2.13 2.52c-.09.01-.09.07-.03.12.22.21.4.45.56.72l1.97 2.86.42.58c.08.1-.01.18-.13.18Zm-3.56-8.54h-1.57c-.1 0-.2.04-.27.1a.4.4 0 0 0-.12.26l-.02 3.03c.01.07.04.13.1.18a.3.3 0 0 0 .19.09h1.08c1.33 0 2.17-.53 2.17-2 0-.95-.63-1.65-1.56-1.65ZM78.49 8.75c-.02.13-.08.16-.2.14 0 0-1.6-.18-2.35-.18a.25.25 0 0 0-.16.1.26.26 0 0 0-.05.17l-.02 3.52.02 4.39c0 .12-.06.18-.2.18h-.87c-.13 0-.2-.06-.2-.18l.02-4.39-.01-3.52a.26.26 0 0 0-.05-.18.25.25 0 0 0-.16-.1c-.75 0-2.35.2-2.35.2-.12 0-.18-.02-.2-.15l-.04-.67c-.02-.12.12-.15.24-.15h6.38c.12 0 .25.03.24.15l-.04.67ZM89.05 14.53v2.45a.2.2 0 0 1-.11.19.19.19 0 0 1-.22-.05l-5.29-7.04c-.07-.1-.18-.05-.18.04l.18 6.62c.02.13-.01.24-.15.24h-.75c-.14 0-.17-.1-.17-.24l.17-6.46-.04-2.26c0-.12.06-.18.2-.18h.38a.3.3 0 0 1 .26.12L88 14.2c.1.14.27.08.27-.06l-.15-6.06c0-.14.04-.24.15-.24H89c.12 0 .15.1.15.24l-.09 6.45ZM99.28 17.07h-5.3c-.13 0-.19-.06-.19-.18l.02-4.39-.02-4.38c0-.13.06-.19.2-.19h5.13c.12 0 .22.03.22.15v.72c0 .12-.1.15-.22.14 0 0-1.6-.23-2.37-.23H95.4a.35.35 0 0 0-.33.21.36.36 0 0 0-.03.14l-.01 2.77a.1.1 0 0 0 .1.1l2.85-.07c.07 0 .15.03.15.1v.73c0 .07-.08.1-.15.1l-2.85-.08a.1.1 0 0 0-.1.07.1.1 0 0 0 0 .04v3.1c0 .1.05.2.11.26.07.07.16.11.26.11h1.35c.84-.05 1.69-.15 2.53-.29.12-.01.22.02.22.14v.78c0 .12-.1.15-.22.15ZM110.24 17.07h-1.14a.28.28 0 0 1-.26-.18l-2.1-3.5c-.24-.39-.48-.6-.76-.6h-1a.28.28 0 0 0-.29.24l.01 3.84c0 .13-.06.19-.2.19h-.86c-.14 0-.2-.06-.2-.19l.02-4.38-.02-4.39c0-.12.02-.18.14-.18h3.61c1.32 0 2.39.91 2.39 2.16s-.89 2.23-2.13 2.52c-.1.01-.1.07-.03.12.21.21.4.45.55.71l1.98 2.87.42.57c.08.12-.01.2-.13.2Zm-3.57-8.54h-1.58c-.1 0-.19.04-.26.1a.4.4 0 0 0-.13.26l-.01 3.03c0 .07.04.13.1.18a.3.3 0 0 0 .18.09h1.08c1.34 0 2.17-.53 2.17-2 0-.95-.62-1.65-1.54-1.65h-.01ZM116.67 17.27a6.96 6.96 0 0 1-2.95-.62.2.2 0 0 1-.1-.11.2.2 0 0 1 0-.15l.26-.94c.03-.12.17-.12.26-.02a3.59 3.59 0 0 0 2.65 1.13c1.03 0 1.9-.67 1.9-1.55 0-2.41-5.04-1.83-5.04-4.86 0-1.54 1.08-2.42 2.58-2.42 1.35 0 2.26.22 2.95.27.1 0 .14.1.1.2l-.17.93c-.02.1-.14.14-.24.07a4.9 4.9 0 0 0-2.67-.77c-.84 0-1.45.45-1.45 1.17 0 2.45 5.05 1.66 5.05 5.09 0 1.86-1.45 2.58-3.13 2.58ZM37.18 0h-1.02v25h1.02V0ZM126 9.46a1.76 1.76 0 0 1-1.05 1.6 1.69 1.69 0 0 1-1.87-.37 1.75 1.75 0 0 1 1.21-2.96 1.66 1.66 0 0 1 1.22.5 1.71 1.71 0 0 1 .5 1.23Zm-3.15 0a1.48 1.48 0 0 0 .91 1.34 1.42 1.42 0 0 0 1.56-.34 1.47 1.47 0 0 0 .3-1.6 1.46 1.46 0 0 0-1.33-.89 1.4 1.4 0 0 0-1.03.43 1.45 1.45 0 0 0-.4 1.06Zm1.07 1h-.25v-2h.76c.45 0 .64.2.64.56a.53.53 0 0 1-.5.56l.6.89h-.29l-.55-.9h-.41v.9Zm.32-1.1c.3 0 .6 0 .6-.34 0-.29-.24-.35-.48-.35h-.44v.7h.32Z"/>
</svg>
