<svg width="21" height="22" viewBox="0 0 21 22" fill="none" xmlns="http://www.w3.org/2000/svg">
<path d="M19.5 0.169434H1.45312C0.65625 0.169434 0 0.873932 0 1.71933V19.7075C0 20.5529 0.65625 21.2104 1.45312 21.2104H19.5C20.2969 21.2104 21 20.5529 21 19.7075V1.71933C21 0.873932 20.2969 0.169434 19.5 0.169434ZM6.32812 18.2046H3.23438V8.20071H6.32812V18.2046ZM4.78125 6.79172C3.75 6.79172 2.95312 5.99329 2.95312 5.00699C2.95312 4.02069 3.75 3.17529 4.78125 3.17529C5.76562 3.17529 6.5625 4.02069 6.5625 5.00699C6.5625 5.99329 5.76562 6.79172 4.78125 6.79172ZM18 18.2046H14.8594V13.3201C14.8594 12.1929 14.8594 10.6899 13.2656 10.6899C11.625 10.6899 11.3906 11.958 11.3906 13.2731V18.2046H8.29688V8.20071H11.25V9.56274H11.2969C11.7188 8.76431 12.75 7.91891 14.25 7.91891C17.3906 7.91891 18 10.0324 18 12.7095V18.2046Z" fill="black"/>
</svg>
